<?xml version="1.0" standalone="no"?>
<!DOCTYPE svg PUBLIC "-//W3C//DTD SVG 20010904//EN"
 "http://www.w3.org/TR/2001/REC-SVG-20010904/DTD/svg10.dtd">
<svg version="1.0" xmlns="http://www.w3.org/2000/svg"
 width="1024.000000pt" height="1024.000000pt" viewBox="0 0 1024.000000 1024.000000"
 preserveAspectRatio="xMidYMid meet">
<metadata>
Created by potrace 1.11, written by Peter Selinger 2001-2013
</metadata>
<g transform="translate(0.000000,1024.000000) scale(0.100000,-0.100000)"
fill="#000000" stroke="none">
<path d="M2905 9577 c-27 -5 -120 -10 -206 -11 -116 -1 -161 -5 -173 -15 -12
-10 -36 -12 -91 -8 -59 4 -76 2 -87 -10 -9 -11 -25 -14 -60 -11 -34 4 -51 1
-60 -10 -8 -9 -24 -12 -50 -9 -26 3 -41 0 -50 -10 -7 -9 -22 -13 -39 -9 -18 3
-32 0 -40 -10 -7 -9 -23 -14 -36 -11 -14 3 -27 -2 -32 -11 -5 -9 -16 -13 -30
-9 -13 3 -24 -1 -30 -10 -5 -10 -16 -14 -30 -10 -14 3 -24 0 -28 -9 -3 -9 -13
-12 -24 -9 -13 4 -19 1 -19 -9 0 -9 -9 -16 -20 -16 -11 0 -20 -4 -20 -10 0 -5
-9 -10 -21 -10 -11 0 -41 -14 -65 -31 -25 -17 -52 -28 -60 -25 -8 3 -14 -1
-14 -9 0 -8 -8 -15 -18 -15 -9 0 -23 -9 -30 -20 -7 -11 -19 -20 -28 -20 -8 0
-27 -13 -41 -30 -13 -16 -31 -30 -39 -30 -8 0 -30 -18 -50 -40 -20 -22 -43
-40 -50 -40 -18 0 -224 -206 -224 -224 0 -7 -18 -30 -40 -50 -22 -20 -40 -42
-40 -50 0 -8 -13 -26 -30 -39 -16 -14 -30 -33 -30 -41 0 -9 -9 -21 -20 -28
-11 -7 -20 -21 -20 -30 0 -10 -6 -18 -14 -18 -9 0 -12 -7 -9 -20 3 -11 0 -20
-6 -20 -6 0 -11 -9 -11 -20 0 -11 -11 -27 -24 -35 -15 -10 -22 -22 -19 -34 3
-10 0 -22 -6 -25 -6 -4 -11 -16 -11 -27 0 -10 -6 -19 -14 -19 -9 0 -12 -7 -9
-19 3 -11 -2 -21 -10 -24 -10 -4 -13 -13 -10 -28 4 -14 0 -25 -10 -30 -9 -6
-13 -17 -10 -30 4 -14 0 -25 -10 -30 -9 -6 -13 -17 -10 -29 3 -12 -2 -28 -10
-38 -9 -10 -14 -27 -11 -38 3 -11 -1 -26 -9 -32 -10 -9 -13 -25 -9 -57 3 -34
1 -46 -11 -51 -12 -4 -14 -16 -10 -58 4 -39 2 -55 -10 -64 -11 -10 -14 -27
-10 -75 3 -43 0 -70 -9 -89 -12 -22 -14 -60 -10 -182 4 -134 2 -157 -12 -171
-14 -15 -16 -201 -13 -2261 2 -1901 4 -2246 16 -2253 11 -7 13 -39 9 -165 -4
-124 -2 -162 10 -184 10 -19 12 -46 9 -94 -5 -54 -3 -67 10 -72 13 -5 15 -17
10 -60 -4 -44 -2 -56 10 -60 12 -5 14 -16 9 -52 -4 -35 -2 -46 10 -51 11 -4
14 -14 10 -34 -3 -18 0 -32 10 -40 9 -7 14 -23 11 -36 -3 -14 2 -27 11 -32 9
-5 13 -16 9 -30 -3 -13 1 -24 10 -30 10 -5 14 -16 10 -30 -3 -13 1 -24 10 -30
10 -5 14 -15 10 -25 -4 -10 -1 -16 8 -16 10 0 15 -10 15 -30 0 -16 5 -30 11
-30 6 0 9 -6 6 -12 -2 -7 11 -32 30 -56 20 -24 32 -49 29 -57 -3 -9 1 -15 9
-15 8 0 15 -8 15 -18 0 -9 9 -23 20 -30 11 -7 20 -19 20 -28 0 -8 13 -27 30
-41 17 -13 30 -31 30 -39 0 -8 18 -30 40 -50 22 -20 40 -43 40 -50 0 -18 206
-224 224 -224 7 0 30 -18 50 -40 20 -22 42 -40 50 -40 8 0 26 -14 39 -30 14
-17 33 -30 41 -30 9 0 21 -9 28 -20 7 -11 21 -20 30 -20 10 0 18 -6 18 -14 0
-9 7 -12 20 -9 11 3 20 0 20 -6 0 -6 6 -11 14 -11 8 0 24 -11 37 -24 13 -13
28 -22 35 -19 7 2 15 0 19 -6 3 -6 17 -11 31 -11 14 0 24 -6 24 -14 0 -9 7
-12 19 -9 11 3 21 -2 24 -10 4 -10 13 -13 28 -10 14 4 25 0 30 -10 6 -9 17
-13 30 -10 14 4 25 0 30 -9 5 -9 18 -14 32 -11 13 3 29 -2 36 -11 8 -10 22
-13 40 -10 17 4 32 0 39 -9 9 -10 24 -13 50 -10 26 4 42 0 50 -10 9 -10 25
-13 58 -9 36 4 49 1 56 -11 7 -14 21 -15 88 -10 60 4 83 3 96 -8 13 -11 54
-14 168 -14 83 0 183 -6 221 -13 108 -19 4455 -13 4478 6 13 11 51 13 165 10
117 -2 153 0 166 11 12 10 34 12 86 8 55 -5 71 -3 82 10 9 12 25 14 64 10 42
-4 54 -2 58 10 5 12 16 14 46 10 28 -3 43 -1 51 10 9 10 23 13 45 9 24 -5 33
-2 38 10 4 11 14 15 31 11 16 -3 29 1 34 11 5 9 16 13 30 9 13 -3 24 1 30 10
5 10 16 14 30 10 14 -3 24 0 28 9 3 9 13 12 24 9 13 -4 19 -1 19 9 0 9 9 16
20 16 11 0 20 5 20 10 0 6 10 10 23 10 12 0 33 9 47 20 14 11 31 20 38 20 6 0
12 5 12 10 0 6 9 10 20 10 11 0 20 5 20 10 0 6 8 10 18 10 9 0 23 9 30 20 7
11 19 20 28 20 8 0 27 14 41 30 13 17 31 30 39 30 8 0 30 18 50 40 20 22 43
40 50 40 18 0 224 206 224 224 0 7 18 30 40 50 22 20 40 42 40 50 0 8 14 26
30 39 17 14 30 33 30 41 0 9 9 21 20 28 11 7 20 21 20 30 0 10 6 18 14 18 9 0
12 7 9 20 -3 11 0 20 6 20 6 0 11 6 11 13 0 7 10 24 22 37 13 13 21 32 20 41
-2 10 2 20 8 24 5 3 10 15 10 26 0 10 6 19 14 19 9 0 12 7 9 19 -3 11 2 21 10
24 10 4 13 13 10 28 -4 14 0 25 10 30 9 6 13 17 10 30 -4 14 0 25 9 30 9 5 14
18 11 32 -3 13 2 29 11 36 10 8 13 22 10 40 -4 17 0 32 9 39 11 9 13 24 10 52
-4 30 -2 41 10 46 12 4 14 16 10 58 -4 39 -2 55 10 64 11 10 14 27 10 75 -3
43 0 70 9 89 12 22 14 60 10 184 -4 126 -2 158 9 165 21 13 21 4505 0 4518
-11 7 -13 39 -9 165 4 124 2 162 -10 184 -10 19 -12 46 -9 94 5 54 3 67 -10
72 -13 5 -15 17 -10 60 4 44 2 56 -10 60 -12 5 -14 17 -11 51 4 32 1 48 -9 57
-8 6 -12 21 -9 32 3 11 -2 28 -11 38 -8 10 -13 26 -10 38 3 12 -1 23 -10 29
-10 5 -14 16 -10 30 3 13 -1 24 -10 30 -10 5 -14 16 -10 30 3 15 0 24 -10 28
-8 3 -13 13 -10 24 3 12 0 19 -9 19 -9 0 -14 11 -14 30 0 17 -5 30 -11 30 -6
0 -9 6 -6 14 3 8 -5 24 -19 37 -13 12 -24 28 -24 36 0 7 -4 13 -10 13 -5 0
-10 9 -10 20 0 11 -4 20 -10 20 -5 0 -10 8 -10 18 0 9 -9 23 -20 30 -11 7 -20
19 -20 28 0 8 -13 27 -30 41 -16 13 -30 31 -30 39 0 8 -18 30 -40 50 -22 20
-40 43 -40 50 0 18 -206 224 -224 224 -7 0 -30 18 -50 40 -20 22 -42 40 -50
40 -8 0 -26 14 -39 30 -14 17 -33 30 -41 30 -9 0 -21 9 -28 20 -7 11 -21 20
-30 20 -10 0 -18 7 -18 15 0 9 -6 12 -16 8 -9 -3 -19 -2 -23 3 -3 5 -17 15
-30 22 -13 8 -39 22 -58 33 -18 10 -42 19 -53 19 -11 0 -20 7 -20 15 0 9 -6
12 -16 8 -10 -4 -20 0 -25 10 -6 9 -17 13 -30 10 -14 -4 -25 0 -30 10 -6 9
-17 13 -30 10 -14 -4 -25 0 -30 9 -5 9 -18 14 -32 11 -13 -3 -29 2 -36 11 -8
10 -22 13 -40 10 -17 -4 -32 0 -39 9 -9 10 -24 13 -50 10 -26 -4 -42 0 -50 10
-9 10 -25 13 -58 9 -36 -4 -49 -1 -56 11 -7 13 -22 15 -91 10 -65 -4 -85 -3
-95 9 -10 12 -38 14 -167 10 -122 -4 -158 -2 -171 9 -14 12 -360 14 -2218 15
-1458 1 -2218 -2 -2251 -9z m4495 -1777 c0 -5 7 -10 16 -10 21 0 98 -76 90
-89 -3 -5 1 -14 9 -21 13 -11 15 -210 15 -1681 0 -1075 -4 -1670 -10 -1674 -6
-3 -10 -26 -10 -50 0 -24 -4 -47 -10 -50 -5 -3 -10 -21 -10 -40 0 -19 -4 -37
-10 -40 -6 -3 -10 -15 -10 -25 0 -11 -9 -35 -20 -55 -11 -20 -20 -42 -20 -49
0 -8 -3 -16 -7 -18 -5 -1 -19 -24 -32 -50 -13 -27 -28 -48 -33 -48 -4 0 -8 -5
-8 -11 0 -14 -104 -135 -230 -265 -59 -61 -109 -115 -111 -121 -7 -18 -628
-649 -775 -786 -184 -173 -197 -184 -213 -179 -8 3 -18 -3 -23 -12 -5 -9 -13
-14 -17 -11 -5 2 -14 -2 -21 -10 -7 -8 -19 -15 -26 -15 -8 0 -14 -4 -14 -10 0
-5 -9 -10 -19 -10 -11 0 -23 -5 -26 -10 -3 -5 -21 -10 -40 -10 -19 0 -37 -4
-40 -10 -4 -7 -415 -10 -1201 -10 -789 0 -1194 3 -1194 10 0 6 -7 10 -16 10
-22 0 -81 64 -99 107 -13 30 -15 118 -15 531 0 495 0 496 22 519 12 13 27 23
34 23 6 0 17 7 24 15 7 9 32 25 55 35 23 10 48 26 55 35 7 8 16 15 21 15 4 0
28 14 52 30 25 17 50 30 56 30 6 0 11 5 11 10 0 13 47 13 55 0 3 -5 5 -230 5
-500 l0 -490 968 0 c533 0 972 3 975 7 4 3 21 8 39 10 18 2 42 12 53 23 12 11
25 20 29 20 26 0 106 121 106 160 0 11 4 22 10 25 5 3 10 21 10 40 0 19 5 37
10 40 6 3 10 25 10 49 0 23 5 47 11 53 9 9 12 112 11 362 l-1 349 26 26 c14
14 22 26 18 26 -5 0 2 11 15 25 13 14 29 25 37 25 7 0 13 5 13 10 0 6 8 10 18
10 10 0 22 4 28 9 7 8 218 16 606 24 45 1 69 6 72 14 3 7 21 13 40 13 19 0 37
4 40 8 2 4 19 9 38 10 18 2 37 7 42 12 6 6 17 10 26 10 25 0 109 45 142 77 16
15 37 44 45 63 9 19 21 41 27 48 5 8 9 31 7 52 -1 21 2 41 8 45 17 10 15 2972
-1 2976 -7 2 -793 3 -1746 1 l-1732 -2 1 -913 0 -912 -26 -27 c-14 -16 -33
-28 -41 -28 -8 0 -14 -4 -14 -9 0 -5 -24 -21 -54 -35 -30 -15 -59 -33 -66 -41
-7 -8 -17 -15 -23 -15 -6 0 -19 -7 -29 -17 -18 -16 -39 -29 -85 -54 -18 -9
-26 -9 -38 1 -13 11 -15 140 -15 1141 0 741 3 1130 10 1134 6 3 10 16 10 29 0
23 59 88 102 111 18 11 408 13 2016 14 1322 1 1992 -2 1992 -9z m-1335 -1590
c20 -22 27 -58 13 -66 -4 -3 -8 -14 -8 -24 0 -10 -4 -20 -8 -22 -4 -1 -29 -47
-55 -100 -27 -53 -55 -102 -63 -108 -8 -7 -14 -21 -14 -30 0 -10 -3 -20 -7
-22 -5 -1 -22 -30 -38 -63 -49 -97 -80 -90 -225 55 -72 72 -120 156 -128 227
-2 24 -9 46 -13 49 -13 8 -11 98 3 112 9 9 82 12 268 12 246 0 258 -1 275 -20z
m-986 -34 c8 -9 11 -48 9 -109 -2 -67 1 -100 10 -109 6 -6 12 -22 12 -35 0
-15 10 -27 35 -39 19 -9 35 -19 35 -23 0 -3 15 -12 33 -20 17 -8 40 -20 49
-28 9 -8 31 -23 50 -32 30 -16 33 -23 36 -67 2 -27 7 -53 13 -58 5 -6 9 -47 9
-93 0 -78 2 -84 23 -92 13 -5 29 -16 36 -25 7 -9 19 -16 26 -16 6 0 20 -9 30
-20 10 -11 23 -20 29 -20 6 0 31 -18 54 -41 46 -42 50 -66 12 -76 -11 -3 -20
-10 -20 -15 0 -5 -5 -6 -10 -3 -6 4 -23 -5 -37 -19 -14 -14 -31 -26 -38 -26
-6 0 -20 -9 -30 -20 -10 -11 -24 -20 -30 -20 -7 0 -18 -7 -25 -15 -7 -9 -33
-25 -56 -35 -24 -11 -46 -24 -49 -30 -3 -5 -23 -17 -43 -27 -20 -9 -46 -25
-56 -35 -11 -10 -26 -18 -33 -18 -7 0 -13 -4 -13 -10 0 -5 -9 -10 -20 -10 -11
0 -20 -4 -20 -9 0 -5 -15 -16 -34 -25 -18 -8 -39 -22 -46 -31 -7 -8 -18 -15
-25 -15 -7 0 -18 -7 -25 -15 -7 -9 -33 -25 -56 -35 -24 -11 -46 -24 -49 -30
-3 -5 -23 -17 -43 -27 -20 -9 -46 -25 -56 -35 -11 -10 -23 -18 -27 -18 -5 0
-28 -13 -52 -30 -25 -16 -49 -30 -55 -30 -5 0 -15 -7 -22 -15 -7 -9 -32 -25
-55 -35 -23 -10 -48 -26 -55 -35 -7 -8 -18 -15 -25 -15 -7 0 -18 -7 -25 -15
-7 -9 -33 -25 -56 -35 -24 -11 -46 -24 -49 -30 -3 -6 -25 -19 -49 -30 -23 -10
-49 -26 -56 -35 -7 -8 -19 -15 -26 -15 -8 0 -14 -4 -14 -10 0 -5 -9 -10 -20
-10 -11 0 -20 -4 -20 -9 0 -5 -15 -16 -34 -25 -18 -8 -39 -22 -46 -31 -7 -8
-18 -15 -25 -15 -7 0 -18 -7 -25 -15 -7 -9 -32 -25 -55 -35 -23 -10 -47 -26
-54 -34 -7 -8 -25 -17 -40 -21 -16 -3 -39 -17 -51 -31 -13 -13 -28 -24 -32
-24 -5 0 -29 -13 -53 -30 -24 -16 -48 -30 -53 -30 -5 0 -15 -7 -22 -15 -7 -9
-29 -23 -49 -32 -20 -10 -45 -25 -55 -35 -11 -10 -25 -18 -32 -18 -6 0 -17 -7
-24 -15 -7 -9 -33 -25 -56 -35 -24 -11 -46 -24 -49 -30 -3 -5 -23 -17 -43 -27
-20 -9 -46 -25 -56 -35 -11 -10 -26 -18 -33 -18 -7 0 -13 -4 -13 -10 0 -5 -9
-10 -20 -10 -11 0 -20 -4 -20 -9 0 -5 -15 -16 -34 -25 -18 -8 -39 -22 -46 -31
-7 -8 -18 -15 -25 -15 -7 0 -18 -7 -25 -15 -7 -9 -33 -25 -56 -35 -24 -11 -46
-24 -49 -30 -3 -6 -26 -19 -50 -30 -24 -11 -47 -25 -50 -31 -6 -9 -48 -30 -65
-33 -3 -1 -16 -11 -30 -23 -13 -13 -29 -23 -36 -23 -6 0 -17 -7 -24 -15 -7 -9
-28 -23 -48 -32 -27 -13 -38 -14 -53 -5 -10 7 -25 12 -33 12 -20 0 -149 70
-181 98 -14 12 -28 22 -33 22 -12 0 -139 132 -174 180 -42 57 -78 128 -78 151
0 10 -4 21 -10 24 -5 3 -10 21 -10 40 0 18 -4 35 -9 37 -5 2 -11 44 -14 95 -3
50 -8 96 -11 102 -4 5 -2 12 4 16 5 3 10 27 10 52 0 40 5 50 35 77 19 17 52
40 72 51 21 11 47 28 57 38 11 9 23 17 27 17 5 0 28 14 52 30 25 17 49 30 54
30 6 0 18 9 27 19 10 11 31 23 46 26 15 3 38 17 50 31 13 13 29 24 36 24 6 0
17 7 24 15 7 9 32 25 55 35 23 10 48 26 55 35 7 8 16 15 21 15 4 0 28 14 52
30 25 17 50 30 56 30 6 0 11 5 11 10 0 6 9 10 20 10 11 0 20 4 20 9 0 5 15 16
34 25 18 8 39 22 46 31 7 8 19 15 26 15 8 0 14 4 14 10 0 5 6 7 13 4 7 -2 24
7 37 21 13 14 29 25 36 25 6 0 17 7 24 15 7 9 29 23 49 32 20 10 45 25 55 35
11 10 25 18 31 18 7 0 20 9 30 20 10 11 22 20 27 20 5 0 28 13 51 28 23 15 56
34 72 42 17 8 39 23 49 33 11 9 25 17 32 17 6 0 17 7 24 15 7 9 32 25 55 35
23 10 48 26 55 35 7 8 18 15 25 15 6 0 19 8 28 18 9 10 32 24 52 32 19 8 35
17 35 22 0 4 9 8 20 8 11 0 20 4 20 9 0 5 15 16 34 25 18 8 39 22 46 31 7 8
16 15 21 15 4 0 28 14 52 30 25 17 49 30 54 30 6 0 18 9 28 20 10 11 24 20 32
20 7 0 13 4 13 10 0 5 7 7 15 4 9 -4 23 4 36 20 11 14 26 26 34 26 7 0 18 7
25 15 7 9 32 25 55 35 23 10 48 26 55 35 7 8 19 15 26 15 8 0 14 5 14 10 0 6
9 10 20 10 11 0 20 4 20 9 0 5 16 16 35 25 19 9 37 21 40 26 3 5 23 17 43 27
20 9 46 25 56 35 11 10 25 18 32 18 6 0 17 7 24 15 7 9 29 23 49 32 20 9 39
21 42 26 3 4 10 7 15 5 5 -2 23 10 39 25 17 16 48 37 71 47 22 10 46 26 53 34
7 8 26 18 44 22 17 3 39 17 50 30 10 13 25 24 33 24 8 0 14 5 14 10 0 15 46
12 59 -4z"/>
</g>
</svg>
